<svg width="28" height="27" viewBox="0 0 28 27" fill="none" xmlns="http://www.w3.org/2000/svg">
<path d="M17.7442 13.5C17.7442 14.6189 17.2991 15.6919 16.5068 16.4831C15.7145 17.2743 14.6399 17.7188 13.5194 17.7188C12.3989 17.7188 11.3243 17.2743 10.532 16.4831C9.73969 15.6919 9.29457 14.6189 9.29457 13.5C9.29457 13.2595 9.31992 13.0247 9.36358 12.7969H7.8863V18.4177C7.8863 18.8086 8.20316 19.125 8.59466 19.125H18.4455C18.6331 19.1246 18.8129 19.0499 18.9455 18.9173C19.078 18.7847 19.1525 18.605 19.1525 18.4177V12.7969H17.6752C17.7188 13.0247 17.7442 13.2595 17.7442 13.5ZM13.5194 16.3125C13.8893 16.3124 14.2557 16.2396 14.5974 16.0981C14.9392 15.9566 15.2497 15.7493 15.5113 15.488C15.7728 15.2267 15.9802 14.9166 16.1217 14.5752C16.2632 14.2339 16.336 13.868 16.3359 13.4986C16.3358 13.1292 16.2629 12.7634 16.1212 12.4221C15.9795 12.0808 15.7719 11.7707 15.5103 11.5096C15.2486 11.2484 14.938 11.0413 14.5961 10.9C14.2543 10.7587 13.8879 10.686 13.518 10.6861C12.7708 10.6863 12.0543 10.9828 11.5261 11.5106C10.9979 12.0383 10.7012 12.7539 10.7014 13.5C10.7016 14.2461 10.9986 14.9616 11.5271 15.489C12.0556 16.0165 12.7722 16.3127 13.5194 16.3125ZM16.8992 10.5469H18.5877C18.6999 10.5469 18.8075 10.5025 18.887 10.4234C18.9664 10.3443 19.0113 10.237 19.0116 10.125V8.43891C19.0116 8.32664 18.967 8.21898 18.8875 8.1396C18.808 8.06022 18.7002 8.01562 18.5877 8.01562H16.8992C16.7868 8.01562 16.679 8.06022 16.5995 8.1396C16.52 8.21898 16.4753 8.32664 16.4753 8.43891V10.125C16.4767 10.357 16.6669 10.5469 16.8992 10.5469ZM13.5194 0C9.93382 0 6.49511 1.42232 3.95973 3.95406C1.42436 6.4858 0 9.91958 0 13.5C0 17.0804 1.42436 20.5142 3.95973 23.0459C6.49511 25.5777 9.93382 27 13.5194 27C15.2948 27 17.0528 26.6508 18.693 25.9724C20.3333 25.2939 21.8236 24.2995 23.079 23.0459C24.3344 21.7924 25.3302 20.3041 26.0097 18.6662C26.6891 17.0283 27.0388 15.2728 27.0388 13.5C27.0388 11.7272 26.6891 9.97167 26.0097 8.33377C25.3302 6.69588 24.3344 5.20765 23.079 3.95406C21.8236 2.70047 20.3333 1.70606 18.693 1.02763C17.0528 0.349188 15.2948 0 13.5194 0ZM20.5607 18.9689C20.5607 19.8281 19.8566 20.5313 18.9961 20.5313H8.04262C7.18217 20.5313 6.47804 19.8281 6.47804 18.9689V8.03109C6.47804 7.17187 7.18217 6.46875 8.04262 6.46875H18.9961C19.8566 6.46875 20.5607 7.17187 20.5607 8.03109V18.9689Z" fill="white"/>
</svg>
