<svg width="29" height="27" viewBox="0 0 29 27" fill="none" xmlns="http://www.w3.org/2000/svg">
<path d="M14.4998 0C7.03321 0 0.980469 6.04406 0.980469 13.5C0.980469 20.9559 7.03321 27 14.4998 27C21.9665 27 28.0192 20.9559 28.0192 13.5C28.0192 6.04406 21.9665 0 14.4998 0ZM11.1904 19.0955H8.45274V10.298H11.1904V19.0955ZM9.80468 9.21797C8.94 9.21797 8.38092 8.60625 8.38092 7.84969C8.38092 7.07766 8.9569 6.48422 9.83989 6.48422C10.7229 6.48422 11.2636 7.07766 11.2805 7.84969C11.2805 8.60625 10.7229 9.21797 9.80468 9.21797ZM21.1891 19.0955H18.4514V14.22C18.4514 13.0852 18.0543 12.3145 17.0643 12.3145C16.3081 12.3145 15.8588 12.8363 15.6603 13.3383C15.587 13.5169 15.5687 13.77 15.5687 14.0217V19.0941H12.8296V13.1034C12.8296 12.0052 12.7944 11.0869 12.7578 10.2966H15.1364L15.2617 11.5186H15.3166C15.6772 10.9448 16.5601 10.0983 18.0374 10.0983C19.8386 10.0983 21.1891 11.3034 21.1891 13.8938V19.0955Z" fill="white"/>
</svg>
