<svg width="28" height="25" viewBox="0 0 28 25" fill="none" xmlns="http://www.w3.org/2000/svg">
<path d="M1 21.4444V8.66667C1 7.25527 2.14416 6.11111 3.55556 6.11111H4.19444C4.99882 6.11111 5.75626 5.73239 6.23889 5.08889L9.07555 1.30667C9.22034 1.11362 9.44758 1 9.68889 1H17.8667C18.108 1 18.3352 1.11362 18.48 1.30667L21.3167 5.08889C21.7993 5.73239 22.5567 6.11111 23.3611 6.11111H24C25.4114 6.11111 26.5556 7.25527 26.5556 8.66667V21.4444C26.5556 22.8559 25.4114 24 24 24H3.55556C2.14416 24 1 22.8559 1 21.4444Z" fill="black" stroke="black" stroke-width="2" stroke-linecap="round" stroke-linejoin="round"/>
<path d="M13.7791 18.889C16.6018 18.889 18.8902 16.6006 18.8902 13.7779C18.8902 10.9551 16.6018 8.66675 13.7791 8.66675C10.9563 8.66675 8.66797 10.9551 8.66797 13.7779C8.66797 16.6006 10.9563 18.889 13.7791 18.889Z" fill="black" stroke="#8ECDD7" stroke-width="2.5" stroke-linecap="round" stroke-linejoin="round"/>
</svg>
