<svg width="32" height="33" viewBox="0 0 32 33" fill="none" xmlns="http://www.w3.org/2000/svg">
<path d="M30.8464 21.3409L28.6511 19.5852C29.0403 17.8075 29.0403 15.9702 28.6511 14.1925L30.8464 12.4369C31.0996 12.2354 31.2707 11.9528 31.329 11.6399C31.3873 11.327 31.3291 11.0042 31.1647 10.7292L28.9112 6.93748C28.7483 6.66159 28.4895 6.45109 28.1814 6.3437C27.8732 6.23631 27.5357 6.23905 27.2295 6.35144L24.5649 7.32126C23.1768 6.10291 21.5392 5.18344 19.7596 4.62318L19.292 1.89966C19.2391 1.58578 19.0728 1.30048 18.823 1.09488C18.5732 0.88929 18.2562 0.77685 17.9288 0.777715H13.4219C13.0945 0.776861 12.7775 0.889296 12.5277 1.09487C12.2779 1.30045 12.1117 1.58573 12.0587 1.89959L11.5914 4.62318C9.81181 5.18342 8.17423 6.10289 6.78615 7.32126L4.12127 6.3513C3.81502 6.23899 3.4776 6.2363 3.16948 6.3437C2.86136 6.4511 2.60267 6.66157 2.43977 6.93741L0.186321 10.7294C0.0219718 11.0044 -0.0362296 11.3272 0.0221403 11.6401C0.0805103 11.953 0.251639 12.2355 0.504876 12.437L2.70001 14.1925C2.31083 15.9702 2.31083 17.8075 2.70001 19.5852L0.504669 21.3409C0.251472 21.5424 0.0803901 21.8249 0.0220593 22.1378C-0.0362716 22.4507 0.0219578 22.7736 0.186321 23.0486L2.43984 26.8403C2.60276 27.1161 2.86149 27.3266 3.16965 27.434C3.47782 27.5414 3.81527 27.5387 4.12155 27.4263L6.78622 26.4565C8.1743 27.6749 9.81188 28.5943 11.5915 29.1546L12.0588 31.8781C12.1117 32.1919 12.278 32.4772 12.5278 32.6828C12.7775 32.8884 13.0945 33.0009 13.4219 33H17.9288C18.2562 33.0009 18.5732 32.8885 18.823 32.6829C19.0728 32.4773 19.2391 32.192 19.292 31.8782L19.7594 29.1546C21.539 28.5943 23.1766 27.6748 24.5647 26.4565L27.2295 27.4264C27.5357 27.5387 27.8731 27.5414 28.1813 27.434C28.4894 27.3266 28.7481 27.1162 28.911 26.8403L31.1643 23.0484C31.3287 22.7735 31.387 22.4507 31.3287 22.1378C31.2705 21.8249 31.0995 21.5424 30.8464 21.3409Z" fill="black"/>
<path d="M15.6766 10.9816C14.4739 10.9816 13.2982 11.328 12.2982 11.9771C11.2982 12.6263 10.5188 13.5489 10.0586 14.6283C9.59834 15.7078 9.47792 16.8955 9.71255 18.0415C9.94718 19.1874 10.5263 20.24 11.3768 21.0662C12.2272 21.8923 13.3107 22.455 14.4903 22.6829C15.6698 22.9108 16.8925 22.7939 18.0036 22.3467C19.1148 21.8996 20.0645 21.1425 20.7327 20.171C21.4008 19.1995 21.7575 18.0574 21.7575 16.889C21.7556 15.3228 21.1144 13.8212 19.9744 12.7138C18.8344 11.6063 17.2888 10.9833 15.6766 10.9816ZM15.6766 20.6483C14.9112 20.6483 14.1631 20.4278 13.5267 20.0147C12.8904 19.6016 12.3944 19.0145 12.1015 18.3276C11.8086 17.6407 11.732 16.8848 11.8813 16.1556C12.0306 15.4264 12.3992 14.7565 12.9403 14.2308C13.4815 13.705 14.171 13.347 14.9217 13.202C15.6723 13.0569 16.4504 13.1313 17.1574 13.4159C17.8645 13.7004 18.4689 14.1822 18.8941 14.8005C19.3193 15.4187 19.5462 16.1455 19.5462 16.889C19.5451 17.8857 19.137 18.8412 18.4116 19.546C17.6861 20.2507 16.7025 20.6471 15.6766 20.6483Z" fill="#8ECDD7"/>
</svg>
